<?xml version="1.0" standalone="no"?>
<!DOCTYPE svg PUBLIC "-//W3C//DTD SVG 20010904//EN"
 "http://www.w3.org/TR/2001/REC-SVG-20010904/DTD/svg10.dtd">
<svg version="1.0" xmlns="http://www.w3.org/2000/svg"
 width="512.000000pt" height="512.000000pt" viewBox="0 0 512.000000 512.000000"
 preserveAspectRatio="xMidYMid meet">
<metadata>
Created by potrace 1.13, written by Peter Selinger 2001-2015
</metadata>
<g transform="translate(0.000000,512.000000) scale(0.100000,-0.100000)"
fill="#e61a0f" stroke="none">
<path d="M2560 4456 c0 -12 -29 -15 -160 -18 -127 -2 -163 -6 -170 -17 -6 -10
-31 -16 -74 -19 -48 -3 -66 -8 -66 -18 0 -10 -14 -14 -50 -14 -38 0 -50 -4
-50 -15 0 -11 -12 -15 -46 -15 -37 0 -47 -4 -51 -20 -4 -14 -14 -20 -33 -20
-16 0 -30 -7 -34 -15 -3 -9 -18 -15 -36 -15 -20 0 -30 -5 -30 -15 0 -10 -10
-15 -31 -15 -22 0 -32 -5 -36 -20 -4 -14 -14 -20 -34 -20 -19 0 -29 -5 -29
-15 0 -8 -7 -15 -15 -15 -8 0 -15 -6 -15 -14 0 -8 -15 -17 -35 -20 -21 -4 -35
-13 -35 -21 0 -8 -7 -15 -15 -15 -8 0 -15 -7 -15 -15 0 -8 -9 -15 -20 -15 -11
0 -20 -7 -20 -15 0 -8 -7 -15 -15 -15 -8 0 -15 -6 -15 -12 0 -16 -44 -58 -59
-58 -6 0 -11 -7 -11 -15 0 -8 -7 -15 -15 -15 -8 0 -15 -7 -15 -15 0 -8 -6 -15
-14 -15 -7 0 -16 -9 -19 -20 -3 -11 -12 -20 -21 -20 -9 0 -16 -7 -16 -15 0 -8
-7 -15 -15 -15 -8 0 -15 -9 -15 -20 0 -11 -7 -20 -15 -20 -10 0 -15 -10 -15
-30 0 -23 -4 -30 -20 -30 -13 0 -20 -7 -20 -20 0 -11 -7 -20 -15 -20 -10 0
-15 -10 -15 -30 0 -20 -5 -30 -15 -30 -8 0 -15 -9 -15 -20 0 -11 -9 -28 -20
-37 -11 -10 -20 -30 -20 -45 0 -18 -5 -28 -15 -28 -10 0 -15 -11 -15 -35 0
-24 -5 -35 -15 -35 -10 0 -15 -10 -15 -31 0 -22 -5 -32 -20 -36 -16 -4 -20
-14 -20 -49 0 -32 -4 -44 -15 -44 -11 0 -15 -12 -15 -50 0 -38 -4 -50 -15 -50
-12 0 -15 -14 -15 -65 0 -51 -4 -66 -18 -74 -14 -8 -18 -27 -20 -105 -3 -74
-7 -96 -18 -96 -12 0 -14 -51 -14 -315 0 -263 2 -315 14 -315 11 0 15 -21 18
-91 2 -73 6 -92 21 -100 13 -8 17 -23 17 -74 0 -51 3 -65 15 -65 11 0 15 -12
15 -50 0 -38 4 -50 15 -50 10 0 15 -10 15 -27 0 -43 11 -73 26 -73 9 0 14 -12
14 -35 0 -24 5 -35 15 -35 10 0 15 -10 15 -30 0 -20 5 -30 15 -30 10 0 15 -11
15 -35 0 -28 4 -35 20 -35 16 0 20 -7 20 -35 0 -24 5 -35 15 -35 8 0 15 -7 15
-15 0 -8 7 -15 15 -15 10 0 15 -10 15 -31 0 -22 5 -32 20 -36 11 -3 20 -12 20
-19 0 -8 7 -14 15 -14 10 0 15 -10 15 -30 0 -20 5 -30 15 -30 8 0 15 -9 15
-20 0 -13 7 -20 20 -20 11 0 20 -7 20 -15 0 -8 7 -15 15 -15 8 0 15 -7 15 -15
0 -8 7 -15 15 -15 8 0 15 -9 15 -20 0 -13 7 -20 20 -20 11 0 20 -7 20 -15 0
-8 7 -15 15 -15 8 0 15 -7 15 -15 0 -8 6 -15 14 -15 7 0 16 -9 19 -20 4 -15
14 -20 36 -20 21 0 31 -5 31 -15 0 -8 7 -15 15 -15 8 0 15 -7 15 -15 0 -8 7
-15 16 -15 9 0 18 -9 21 -20 4 -14 14 -20 34 -20 19 0 29 -5 29 -15 0 -8 9
-15 20 -15 11 0 20 -7 20 -15 0 -10 10 -15 28 -15 15 0 35 -9 45 -20 11 -13
29 -20 52 -20 24 0 35 -5 35 -15 0 -10 11 -15 35 -15 24 0 35 -5 35 -15 0 -11
12 -15 50 -15 36 0 50 -4 50 -14 0 -17 31 -26 88 -26 31 0 42 -4 42 -15 0 -12
18 -15 100 -15 82 0 100 -3 100 -15 0 -13 31 -15 215 -15 184 0 215 2 215 15
0 12 16 15 85 15 69 0 85 3 85 15 0 12 14 15 65 15 49 0 65 3 65 14 0 15 30
26 73 26 17 0 27 5 27 15 0 11 12 15 50 15 38 0 50 4 50 15 0 10 11 15 35 15
28 0 35 4 35 20 0 16 7 20 30 20 20 0 30 5 30 15 0 8 9 15 20 15 11 0 20 7 20
15 0 10 10 15 29 15 20 0 30 6 34 20 3 11 12 20 21 20 9 0 16 7 16 15 0 10 10
15 30 15 20 0 30 5 30 15 0 8 9 15 20 15 13 0 20 7 20 20 0 11 7 20 15 20 8 0
15 7 15 15 0 8 7 15 15 15 8 0 15 7 15 15 0 8 9 15 20 15 13 0 20 7 20 20 0
11 7 20 15 20 8 0 15 7 15 15 0 8 7 15 15 15 8 0 15 7 15 15 0 8 9 15 20 15
13 0 20 7 20 20 0 11 7 20 15 20 8 0 15 7 15 15 0 8 7 15 15 15 10 0 15 10 15
30 0 21 5 30 16 30 9 0 18 9 21 20 3 11 12 20 19 20 9 0 14 11 14 30 0 19 5
30 14 30 8 0 17 15 20 35 4 21 13 35 21 35 10 0 15 10 15 30 0 20 5 30 15 30
10 0 15 11 15 35 0 24 5 35 15 35 10 0 15 11 15 35 0 28 4 35 20 35 17 0 20 7
20 50 0 38 4 50 15 50 11 0 15 12 15 50 0 36 4 50 14 50 10 0 15 18 18 61 3
37 10 64 18 69 10 6 15 37 18 104 3 73 8 96 18 96 12 0 14 57 14 335 0 281 -2
335 -14 335 -11 0 -15 21 -18 91 -2 73 -6 92 -20 100 -14 8 -18 23 -18 74 0
51 -3 65 -15 65 -11 0 -15 12 -15 50 0 38 -4 50 -15 50 -10 0 -15 10 -15 28 0
42 -11 72 -26 72 -9 0 -14 11 -14 29 0 16 -6 31 -15 35 -9 3 -15 18 -15 36 0
20 -5 30 -15 30 -10 0 -15 10 -15 30 0 17 -6 33 -14 36 -8 3 -18 19 -21 35 -4
16 -13 29 -21 29 -9 0 -14 11 -14 35 0 24 -5 35 -15 35 -8 0 -15 6 -15 14 0 7
-9 16 -20 19 -11 3 -20 12 -20 21 0 9 -7 16 -15 16 -10 0 -15 10 -15 30 0 20
-5 30 -15 30 -8 0 -15 7 -15 15 0 8 -7 15 -16 15 -9 0 -18 9 -21 20 -3 11 -12
20 -19 20 -8 0 -14 7 -14 15 0 8 -7 15 -15 15 -8 0 -15 7 -15 15 0 8 -7 15
-16 15 -9 0 -18 9 -21 20 -3 11 -12 20 -19 20 -8 0 -14 7 -14 15 0 8 -7 15
-15 15 -8 0 -15 7 -15 15 0 8 -7 15 -16 15 -9 0 -18 9 -21 20 -4 14 -14 20
-34 20 -19 0 -29 5 -29 15 0 8 -9 15 -20 15 -11 0 -20 6 -20 14 0 8 -13 17
-30 21 -16 4 -30 13 -30 21 0 8 -9 14 -20 14 -11 0 -20 7 -20 15 0 10 -10 15
-30 15 -20 0 -30 5 -30 15 0 10 -10 15 -27 15 -43 0 -73 11 -73 26 0 9 -12 14
-35 14 -24 0 -35 5 -35 15 0 11 -12 15 -50 15 -36 0 -50 4 -50 14 0 10 -18 15
-61 18 -38 3 -64 10 -69 19 -7 11 -40 15 -140 17 -104 3 -130 6 -130 18 0 11
-16 14 -65 14 -50 0 -65 -3 -65 -14z m128 -863 c2 -8 20 -13 42 -13 58 0 100
-11 100 -26 0 -9 12 -14 35 -14 24 0 35 -5 35 -15 0 -10 10 -15 30 -15 19 0
30 -5 30 -14 0 -8 15 -17 35 -20 21 -4 35 -13 35 -21 0 -8 7 -15 15 -15 8 0
15 -7 15 -15 0 -8 7 -15 15 -15 8 0 15 -7 15 -15 0 -8 7 -15 16 -15 9 0 18 -9
21 -20 3 -11 12 -20 19 -20 8 0 14 -7 14 -15 0 -8 7 -15 15 -15 8 0 15 -6 15
-14 0 -7 9 -16 20 -19 11 -3 20 -12 20 -21 0 -9 7 -16 15 -16 10 0 15 -10 15
-30 0 -20 5 -30 15 -30 8 0 15 -9 15 -20 0 -11 6 -20 14 -20 14 0 26 -29 26
-66 0 -12 7 -24 15 -28 9 -3 15 -19 15 -41 0 -24 4 -35 15 -35 11 0 15 -12 15
-45 0 -31 5 -47 18 -54 14 -8 18 -27 20 -100 3 -68 7 -91 17 -91 11 0 14 -31
14 -150 0 -118 -3 -150 -14 -150 -9 0 -14 -22 -17 -80 -2 -54 -8 -84 -17 -89
-7 -5 -16 -29 -18 -55 -4 -30 -10 -46 -19 -46 -10 0 -14 -14 -14 -50 0 -38 -4
-50 -15 -50 -10 0 -15 -10 -15 -31 0 -22 -5 -32 -20 -36 -14 -4 -20 -14 -20
-34 0 -19 -5 -29 -15 -29 -8 0 -15 -9 -15 -20 0 -11 -6 -20 -14 -20 -8 0 -17
-14 -21 -30 -4 -16 -13 -30 -21 -30 -8 0 -14 -7 -14 -15 0 -8 -7 -15 -15 -15
-8 0 -15 -9 -15 -20 0 -11 -7 -20 -15 -20 -8 0 -15 -7 -15 -15 0 -8 -9 -15
-20 -15 -11 0 -20 -7 -20 -15 0 -8 -6 -15 -13 -15 -7 0 -20 -9 -30 -20 -9 -11
-26 -20 -37 -20 -11 0 -20 -7 -20 -15 0 -10 -10 -15 -29 -15 -20 0 -30 -6 -34
-20 -4 -15 -14 -20 -36 -20 -21 0 -31 -5 -31 -15 0 -11 -12 -15 -50 -15 -38 0
-50 -4 -50 -15 0 -13 -28 -15 -195 -15 -167 0 -195 2 -195 15 0 11 -11 15 -40
15 -29 0 -40 4 -40 15 0 10 -10 15 -31 15 -22 0 -32 5 -36 20 -4 14 -14 20
-34 20 -19 0 -29 5 -29 15 0 8 -7 15 -15 15 -9 0 -18 6 -21 14 -3 8 -19 18
-35 21 -16 4 -29 13 -29 21 0 8 -7 14 -15 14 -8 0 -15 6 -15 13 0 7 -9 20 -20
30 -11 9 -20 23 -20 31 0 8 -7 16 -15 20 -8 3 -15 12 -15 21 0 8 -6 15 -14 15
-7 0 -16 9 -19 20 -3 11 -12 20 -21 20 -11 0 -16 9 -16 30 0 20 -5 30 -15 30
-10 0 -15 11 -15 35 0 24 -5 35 -15 35 -10 0 -15 10 -15 30 0 16 -7 33 -16 38
-10 5 -18 28 -21 55 -4 31 -10 47 -19 47 -11 0 -14 19 -14 80 0 64 -3 80 -15
80 -13 0 -15 31 -15 220 0 189 2 220 15 220 12 0 15 16 15 80 0 64 3 80 15 80
11 0 15 12 15 50 0 36 4 50 14 50 15 0 26 30 26 73 0 17 5 27 15 27 10 0 15
10 15 30 0 20 5 30 15 30 8 0 15 9 15 20 0 11 7 20 15 20 8 0 17 14 21 35 3
20 12 35 20 35 8 0 14 7 14 15 0 8 7 15 15 15 8 0 15 7 15 15 0 8 9 15 20 15
13 0 20 7 20 20 0 11 7 20 15 20 8 0 15 7 15 15 0 8 7 15 15 15 8 0 15 7 15
15 0 8 9 15 20 15 11 0 20 6 20 14 0 8 14 17 30 21 17 4 30 13 30 21 0 9 11
14 35 14 24 0 35 5 35 15 0 10 11 15 35 15 24 0 35 5 35 14 0 11 19 17 70 22
39 3 70 10 70 15 0 13 32 18 124 16 61 -1 91 -6 94 -14z"/>
</g>
</svg>
